<svg xmlns="http://www.w3.org/2000/svg" viewBox="0 0 73.74 19.59"><defs><style>.cls-1{fill:#009444;}</style></defs><g id="Layer_2" data-name="Layer 2"><g id="Layer_1-2" data-name="Layer 1"><path class="cls-1" d="M33,4.31a18.8,18.8,0,0,1,3-1.41L35.48,3l-.22,0-.22,0c-.28.07-.56.14-.84.23a14.15,14.15,0,0,0-1.62.59A15.45,15.45,0,0,0,29.7,5.56l-.62.51-.3.27a3.71,3.71,0,0,0-.29.27,7.27,7.27,0,0,0-.55.56c-.18.19-.34.39-.51.59A7.55,7.55,0,0,0,26.59,9a4.44,4.44,0,0,0-.24.49L26,9.19a10,10,0,0,0-1.14-1,10.61,10.61,0,0,0-1.32-.85c-.23-.13-.48-.24-.72-.35l-.38-.16-.39-.13a7.22,7.22,0,0,1,.65.42c.21.14.4.29.6.44a14.33,14.33,0,0,1,1.08,1A5.79,5.79,0,0,1,24.9,9c.16.17.31.35.45.52s.28.36.41.55.25.37.37.56l.62,1L27,10.53a1,1,0,0,0,0-.13c0-.05,0-.1.05-.15s.08-.2.12-.3.09-.2.15-.3.1-.2.16-.3a9.41,9.41,0,0,1,.8-1.14,12.4,12.4,0,0,1,1-1.09l.53-.52.56-.49A17.43,17.43,0,0,1,33,4.31Z"/><path class="cls-1" d="M23.56,9.55a3.89,3.89,0,0,1-1-.19,2.77,2.77,0,0,1-1.35-1A15,15,0,0,0,20.1,6.92a3.5,3.5,0,0,0-.88-.64L19,6.19,19.31,6a6,6,0,0,1,1.08-.44,5.06,5.06,0,0,1,1.16-.21,4.2,4.2,0,0,1,3.14,1.18,5.55,5.55,0,0,1,1.22,1.82,3.76,3.76,0,0,0-.74-2.07,4.19,4.19,0,0,0-.9-.88A4.55,4.55,0,0,0,23,4.82a3.58,3.58,0,0,0-.35-.09l-.19,0-.19,0a4.77,4.77,0,0,0-.76,0A5.57,5.57,0,0,0,20,4.82a6.93,6.93,0,0,0-1.32.5c-.2.1-.4.22-.59.33l-.27.19-.14.1-.14.1-.72.59,1,.12a2.69,2.69,0,0,1,1.48.67c.43.36.79.83,1.25,1.28a4.32,4.32,0,0,0,.8.64,2.92,2.92,0,0,0,1.06.38,3.5,3.5,0,0,0,1.12,0,2.67,2.67,0,0,0,1-.31A3.19,3.19,0,0,1,23.56,9.55Z"/><path class="cls-1" d="M40.58,2.22l-.11-.1L40.36,2l-.22-.17-.45-.31a10.31,10.31,0,0,0-1-.55A9.15,9.15,0,0,0,36.51.2,7.62,7.62,0,0,0,34,0l-.31,0-.31,0-.3.07-.29.07A9.82,9.82,0,0,0,31.7.64l-.52.24-.5.27-.47.3-.43.33a6.26,6.26,0,0,0-1.35,1.54l-.13.21-.11.22c-.06.14-.14.28-.19.43l-.16.44,0,.11s0,.08,0,.12l-.06.22,0,.22,0,.12v.11L27.59,6a2.26,2.26,0,0,0,0,.45c0,.15,0,.3,0,.45l.09-.44c0-.15.06-.3.11-.44l.13-.43,0-.11,0-.1.09-.21.08-.21s0-.07,0-.11l.06-.1.2-.41.25-.38a1.37,1.37,0,0,1,.13-.2L29,3.55a6.62,6.62,0,0,1,1.37-1.32,7.78,7.78,0,0,1,1.79-.93,8.25,8.25,0,0,1,1-.3,5,5,0,0,1,1-.16,5.9,5.9,0,0,1,1,0,7.24,7.24,0,0,1,1,.17,9.3,9.3,0,0,1,1.93.71c.3.15.59.32.87.49l.13.08a6.26,6.26,0,0,0-.65.25,5,5,0,0,0-1.27.87,22.74,22.74,0,0,0-1.78,2,6,6,0,0,1-.93.88l-.14.09-.14.09c-.1,0-.19.11-.29.15l-.32.14-.16.05-.17,0a6.14,6.14,0,0,1-.72.15,6.36,6.36,0,0,1-.75.08A4.75,4.75,0,0,1,30.31,7a4.57,4.57,0,0,0,1.5.34h.8c.26,0,.53,0,.79-.09a4.24,4.24,0,0,0,1.49-.55A5.69,5.69,0,0,0,36,5.77c.67-.64,1.21-1.33,1.88-1.87A4.68,4.68,0,0,1,39,3.22a4.39,4.39,0,0,1,1.27-.32l1-.1Z"/><path class="cls-1" d="M16.74,19c0,.24-.1.35-.32.35h-4c-.21,0-.32-.13-.32-.39,0-.76,0-1.89.08-3.4s.09-2.65.09-3.41c0-.21,0-.33-.1-.34a28.9,28.9,0,0,0-1.51,3.47l-1.62,4a.49.49,0,0,1-.28.31H8.33c-.39,0-.62-.08-.69-.23-.41-.82-.94-2-1.6-3.59S4.81,12.9,4.46,12.16a.48.48,0,0,0-.1-.12.57.57,0,0,0-.08.33c0,.73,0,1.83,0,3.3s.06,2.56.06,3.3c0,.26-.1.39-.31.39H.33c-.15,0-.25,0-.28-.07A.49.49,0,0,1,0,19c0-.82,0-2.05.12-3.68s.12-2.86.12-3.68S.2,9.18.12,6.8C.12,6.17.08,5.25,0,4V3.83c0-.15.15-.22.47-.22l1.86,0c.82,0,1.44,0,1.85,0,.08,0,.2.15.35.47l3.28,7.2c.23.48.42.73.58.73s.26-.28.53-.84L12.29,4c.12-.3.26-.44.41-.44l1,0,1,0c.19,0,.47,0,.86-.06s.67-.06.86-.06.33.09.33.27q0,1.34-.09,4c-.07,1.76-.1,3.08-.1,4s0,2,.1,3.67S16.74,18.21,16.74,19Z"/><path class="cls-1" d="M23.67,16.18c0,.39-.13.62-.39.67L22.07,17,20,17.16a.8.8,0,0,0,.5.58,1.71,1.71,0,0,0,.77.17,2.18,2.18,0,0,0,1-.28l.44-.28c.09,0,.22.23.42.59a2.28,2.28,0,0,1,.29.69s0,.07-.09.13a2.88,2.88,0,0,1-2.22.77,3.14,3.14,0,0,1-2.25-.81A2.88,2.88,0,0,1,18,16.51a3.12,3.12,0,0,1,.79-2.21A2.75,2.75,0,0,1,21,13.41a2.53,2.53,0,0,1,1.91.82A2.75,2.75,0,0,1,23.67,16.18Zm-2.06-.36a.92.92,0,0,0-.25-.64.83.83,0,0,0-.62-.27.74.74,0,0,0-.61.31,1.06,1.06,0,0,0-.22.67.14.14,0,0,0,.16.16,10.08,10.08,0,0,0,1.35-.13C21.55,15.9,21.61,15.87,21.61,15.82Z"/><path class="cls-1" d="M30.52,11.05c0-.09,0,0-.05.38s-.07,1-.1,1.67,0,1.63,0,2.61a30.66,30.66,0,0,0,.13,3.45,1,1,0,0,1,0,.14.07.07,0,0,1-.08.07q-.21,0-1.56,0-.31,0-.36-.12l0-.45a.2.2,0,0,0-.05-.09l-.09.07a2.14,2.14,0,0,1-1.58.62,2.51,2.51,0,0,1-2-.86A3.13,3.13,0,0,1,24,16.48a3.12,3.12,0,0,1,.7-2.1,2.44,2.44,0,0,1,2-.88,1.72,1.72,0,0,1,1.38.56c.05.06.09.09.11.09s.06-.05.06-.15q0-.45,0-1.35c0-.59,0-1,0-1.34,0-.11,0-.18.09-.19l1-.07a8.31,8.31,0,0,0,1-.15C30.48,10.9,30.52,11,30.52,11.05Zm-2.21,5.38a1.17,1.17,0,0,0-.32-.81,1,1,0,0,0-.78-.35.94.94,0,0,0-.76.35,1.28,1.28,0,0,0-.29.84,1.19,1.19,0,0,0,.29.8,1,1,0,0,0,.76.35,1.05,1.05,0,0,0,.79-.35A1.21,1.21,0,0,0,28.31,16.43Z"/><path class="cls-1" d="M38.27,18a.44.44,0,0,1-.12.24,3.55,3.55,0,0,1-2.87,1.29,3.84,3.84,0,0,1-3-1.25,4.34,4.34,0,0,1-1.11-3.05,4.4,4.4,0,0,1,1.09-3A3.62,3.62,0,0,1,35.17,11a3.88,3.88,0,0,1,3,1.16.39.39,0,0,1,.12.23,3.76,3.76,0,0,1-.41.83,4.57,4.57,0,0,1-.51.8.17.17,0,0,1-.12,0,1.4,1.4,0,0,1-.29-.24,3.76,3.76,0,0,0-.62-.44,2.2,2.2,0,0,0-1-.23,1.66,1.66,0,0,0-1.37.64,2.31,2.31,0,0,0-.48,1.48,2.36,2.36,0,0,0,.48,1.5,1.66,1.66,0,0,0,1.37.65,2.15,2.15,0,0,0,1-.22,3.43,3.43,0,0,0,.61-.41,1.25,1.25,0,0,1,.29-.22.17.17,0,0,1,.12.06c.06.07.23.31.51.73A4.17,4.17,0,0,1,38.27,18Z"/><path class="cls-1" d="M44.5,16.48a3,3,0,0,1-.82,2.17,3.16,3.16,0,0,1-4.26,0,2.82,2.82,0,0,1-.84-2.11,3.11,3.11,0,0,1,.8-2.21,3.19,3.19,0,0,1,4.3,0A2.91,2.91,0,0,1,44.5,16.48Zm-1.92,0a1.28,1.28,0,0,0-.29-.82.92.92,0,0,0-.74-.35.94.94,0,0,0-.76.36,1.23,1.23,0,0,0-.28.81,1.19,1.19,0,0,0,.28.81,1,1,0,0,0,1.51,0A1.19,1.19,0,0,0,42.58,16.48Z"/><path class="cls-1" d="M51,19.19a.16.16,0,0,1-.16.18,6.76,6.76,0,0,1-.85,0,5.51,5.51,0,0,1-.92,0c-.12,0-.17-.1-.17-.24s0-.46,0-.83,0-.65,0-.84,0-.36,0-.65,0-.5,0-.64c0-.54-.24-.81-.7-.81a1,1,0,0,0-.53.2c-.22.15-.33.3-.33.44v3.17a.18.18,0,0,1-.18.21,7.37,7.37,0,0,1-.84,0,5.47,5.47,0,0,1-.89,0c-.12,0-.18-.08-.18-.19V17.79c0-.61,0-1.07,0-1.38a9.11,9.11,0,0,0-.23-2.29.34.34,0,0,1,0-.09.13.13,0,0,1,.09-.13l1-.13q.93-.18,1-.18s.08.13.1.4.06.39.1.39A3.35,3.35,0,0,1,48,14a2.48,2.48,0,0,1,1.21-.4,2.09,2.09,0,0,1,1.25.35A1.3,1.3,0,0,1,51,15v1.87c0,.26,0,.64,0,1.14Z"/><path class="cls-1" d="M57.84,19.19a.17.17,0,0,1-.17.18,6.76,6.76,0,0,1-.85,0,5.6,5.6,0,0,1-.92,0c-.11,0-.17-.1-.17-.24s0-.46,0-.83,0-.65,0-.84,0-.36,0-.65,0-.5,0-.64c0-.54-.23-.81-.7-.81a1,1,0,0,0-.53.2c-.22.15-.33.3-.33.44v3.17a.18.18,0,0,1-.18.21,7.37,7.37,0,0,1-.84,0,5.55,5.55,0,0,1-.89,0c-.12,0-.18-.08-.18-.19,0-.31,0-.77,0-1.38V16.41a9.11,9.11,0,0,0-.23-2.29.34.34,0,0,1,0-.09A.13.13,0,0,1,52,13.9l1-.13q.93-.18,1-.18s.08.13.1.4.06.39.1.39a3.35,3.35,0,0,1,.63-.41,2.48,2.48,0,0,1,1.22-.4,2.06,2.06,0,0,1,1.24.35A1.31,1.31,0,0,1,57.83,15v3C57.84,18.56,57.84,18.94,57.84,19.19Z"/><path class="cls-1" d="M64.18,16.18c0,.39-.12.62-.38.67L62.59,17l-2.06.18a.81.81,0,0,0,.49.58,1.79,1.79,0,0,0,.78.17,2.18,2.18,0,0,0,1.05-.28l.44-.28a1.78,1.78,0,0,1,.42.59,2.28,2.28,0,0,1,.29.69s0,.07-.09.13a2.88,2.88,0,0,1-2.22.77,3.14,3.14,0,0,1-2.25-.81,2.88,2.88,0,0,1-.88-2.21,3.16,3.16,0,0,1,.78-2.21,2.78,2.78,0,0,1,2.15-.89,2.54,2.54,0,0,1,1.91.82A2.74,2.74,0,0,1,64.18,16.18Zm-2.05-.36a.89.89,0,0,0-.26-.64.8.8,0,0,0-.61-.27.73.73,0,0,0-.61.31,1.06,1.06,0,0,0-.22.67.14.14,0,0,0,.16.16,10.08,10.08,0,0,0,1.35-.13C62.07,15.9,62.13,15.87,62.13,15.82Z"/><path class="cls-1" d="M68.71,15.51l-.36-.1a2.35,2.35,0,0,0-.56-.09,1.13,1.13,0,0,0-.84.31,1.17,1.17,0,0,0-.31.84,1.08,1.08,0,0,0,.34.84,1.27,1.27,0,0,0,.89.31,1.53,1.53,0,0,0,.58-.13l.3-.13c.07,0,.16.25.26.74a6.45,6.45,0,0,1,.14.9c0,.15-.25.28-.73.39a4.64,4.64,0,0,1-.91.12,2.83,2.83,0,0,1-2.13-.87,3,3,0,0,1-.83-2.16,3,3,0,0,1,.84-2.16,2.84,2.84,0,0,1,2.12-.88,3.11,3.11,0,0,1,1.54.38c.1,0,.15.11.15.16a5.66,5.66,0,0,1-.18.69c-.11.39-.18.63-.21.71S68.74,15.51,68.71,15.51Z"/><path class="cls-1" d="M73.74,17.65a4.52,4.52,0,0,1,0,.53,5,5,0,0,0,0,.52.51.51,0,0,1,0,.22,1,1,0,0,1-.2.13,3.37,3.37,0,0,1-1.67.42c-1.13,0-1.7-.43-1.7-1.3,0-.26,0-.64,0-1.16s0-.91,0-1.16-.1-.26-.3-.26h-.15c-.15,0-.22-.05-.22-.15s0-.16,0-.29,0-.23,0-.29,0-.21,0-.37,0-.3,0-.38.12-.12.37-.13.22,0,.23-.11a4.4,4.4,0,0,0,0-.71q0-.75,0-.72c0-.45,0-.68.13-.68a2.49,2.49,0,0,1,.45.07l.47.09L72,12c.1,0,.14,0,.14.1s0,.39,0,.71,0,.56,0,.72,0,.28.17.28.34,0,.62,0h.63q.12,0,.12.09a3.44,3.44,0,0,1,0,.4,3.94,3.94,0,0,0,0,.4v.41c0,.18,0,.32,0,.41s-.06.13-.17.13H72.16c-.06,0-.08.09-.08.26v.83a1.52,1.52,0,0,0,.11.68.69.69,0,0,0,.62.25,1.64,1.64,0,0,0,.42-.07,2.05,2.05,0,0,1,.39-.06C73.7,17.52,73.74,17.56,73.74,17.65Z"/></g></g></svg>